<svg width="54" height="71" viewBox="0 0 54 71" fill="none" xmlns="http://www.w3.org/2000/svg">
<path d="M3.16666 67C2.90266 67 2.68066 66.91 2.50066 66.73C2.32066 66.55 2.23066 66.328 2.23066 66.064V53.878C2.23066 53.602 2.32066 53.38 2.50066 53.212C2.68066 53.032 2.90266 52.942 3.16666 52.942C3.44266 52.942 3.66466 53.032 3.83266 53.212C4.01266 53.38 4.10266 53.602 4.10266 53.878V59.044H12.4547V53.878C12.4547 53.602 12.5447 53.38 12.7247 53.212C12.9047 53.032 13.1267 52.942 13.3907 52.942C13.6667 52.942 13.8887 53.032 14.0567 53.212C14.2247 53.38 14.3087 53.602 14.3087 53.878V66.064C14.3087 66.328 14.2247 66.55 14.0567 66.73C13.8887 66.91 13.6667 67 13.3907 67C13.1267 67 12.9047 66.91 12.7247 66.73C12.5447 66.55 12.4547 66.328 12.4547 66.064V60.7H4.10266V66.064C4.10266 66.328 4.01266 66.55 3.83266 66.73C3.66466 66.91 3.44266 67 3.16666 67ZM21.8344 67.072C20.9584 67.072 20.1724 66.856 19.4764 66.424C18.7804 65.98 18.2284 65.386 17.8204 64.642C17.4244 63.886 17.2264 63.034 17.2264 62.086C17.2264 61.138 17.4424 60.286 17.8744 59.53C18.3184 58.774 18.9124 58.18 19.6564 57.748C20.4124 57.304 21.2584 57.082 22.1944 57.082C23.1304 57.082 23.9704 57.304 24.7144 57.748C25.4584 58.18 26.0464 58.774 26.4784 59.53C26.9224 60.286 27.1444 61.138 27.1444 62.086H26.4424C26.4424 63.034 26.2384 63.886 25.8304 64.642C25.4344 65.386 24.8884 65.98 24.1924 66.424C23.4964 66.856 22.7104 67.072 21.8344 67.072ZM22.1944 65.452C22.8064 65.452 23.3524 65.308 23.8324 65.02C24.3124 64.72 24.6904 64.318 24.9664 63.814C25.2424 63.298 25.3804 62.722 25.3804 62.086C25.3804 61.438 25.2424 60.862 24.9664 60.358C24.6904 59.842 24.3124 59.44 23.8324 59.152C23.3524 58.852 22.8064 58.702 22.1944 58.702C21.5944 58.702 21.0484 58.852 20.5564 59.152C20.0764 59.44 19.6924 59.842 19.4044 60.358C19.1284 60.862 18.9904 61.438 18.9904 62.086C18.9904 62.722 19.1284 63.298 19.4044 63.814C19.6924 64.318 20.0764 64.72 20.5564 65.02C21.0484 65.308 21.5944 65.452 22.1944 65.452ZM26.2264 67.018C25.9624 67.018 25.7404 66.934 25.5604 66.766C25.3924 66.586 25.3084 66.364 25.3084 66.1V63.346L25.6504 61.438L27.1444 62.086V66.1C27.1444 66.364 27.0544 66.586 26.8744 66.766C26.7064 66.934 26.4904 67.018 26.2264 67.018ZM34.8268 67.072C33.8908 67.072 33.0508 66.856 32.3068 66.424C31.5628 65.98 30.9748 65.38 30.5428 64.624C30.1108 63.868 29.8888 63.016 29.8768 62.068V53.86C29.8768 53.584 29.9608 53.362 30.1288 53.194C30.3088 53.026 30.5308 52.942 30.7948 52.942C31.0708 52.942 31.2928 53.026 31.4608 53.194C31.6288 53.362 31.7128 53.584 31.7128 53.86V58.72C32.1328 58.216 32.6368 57.82 33.2248 57.532C33.8248 57.232 34.4788 57.082 35.1868 57.082C36.0628 57.082 36.8488 57.304 37.5448 57.748C38.2408 58.18 38.7868 58.774 39.1828 59.53C39.5908 60.274 39.7948 61.12 39.7948 62.068C39.7948 63.016 39.5728 63.868 39.1288 64.624C38.6968 65.38 38.1088 65.98 37.3648 66.424C36.6208 66.856 35.7748 67.072 34.8268 67.072ZM34.8268 65.452C35.4388 65.452 35.9848 65.308 36.4648 65.02C36.9448 64.72 37.3228 64.312 37.5988 63.796C37.8868 63.28 38.0308 62.704 38.0308 62.068C38.0308 61.42 37.8868 60.844 37.5988 60.34C37.3228 59.836 36.9448 59.44 36.4648 59.152C35.9848 58.852 35.4388 58.702 34.8268 58.702C34.2268 58.702 33.6808 58.852 33.1888 59.152C32.7088 59.44 32.3308 59.836 32.0548 60.34C31.7788 60.844 31.6408 61.42 31.6408 62.068C31.6408 62.704 31.7788 63.28 32.0548 63.796C32.3308 64.312 32.7088 64.72 33.1888 65.02C33.6808 65.308 34.2268 65.452 34.8268 65.452ZM43.6311 67C43.3671 67 43.1451 66.916 42.9651 66.748C42.7971 66.568 42.7131 66.346 42.7131 66.082V58.072C42.7131 57.796 42.7971 57.574 42.9651 57.406C43.1451 57.238 43.3671 57.154 43.6311 57.154C43.9071 57.154 44.1291 57.238 44.2971 57.406C44.4651 57.574 44.5491 57.796 44.5491 58.072V66.082C44.5491 66.346 44.4651 66.568 44.2971 66.748C44.1291 66.916 43.9071 67 43.6311 67ZM43.6311 55.552C43.3071 55.552 43.0251 55.438 42.7851 55.21C42.5571 54.97 42.4431 54.688 42.4431 54.364C42.4431 54.04 42.5571 53.764 42.7851 53.536C43.0251 53.296 43.3071 53.176 43.6311 53.176C43.9551 53.176 44.2311 53.296 44.4591 53.536C44.6991 53.764 44.8191 54.04 44.8191 54.364C44.8191 54.688 44.6991 54.97 44.4591 55.21C44.2311 55.438 43.9551 55.552 43.6311 55.552ZM51.5467 67C50.9467 67 50.4067 66.85 49.9267 66.55C49.4467 66.238 49.0687 65.818 48.7927 65.29C48.5167 64.762 48.3787 64.168 48.3787 63.508V54.922C48.3787 54.658 48.4627 54.442 48.6307 54.274C48.7987 54.106 49.0147 54.022 49.2787 54.022C49.5427 54.022 49.7587 54.106 49.9267 54.274C50.0947 54.442 50.1787 54.658 50.1787 54.922V63.508C50.1787 63.988 50.3107 64.39 50.5747 64.714C50.8387 65.038 51.1627 65.2 51.5467 65.2H52.1587C52.3747 65.2 52.5547 65.284 52.6987 65.452C52.8547 65.62 52.9327 65.836 52.9327 66.1C52.9327 66.364 52.8307 66.58 52.6267 66.748C52.4347 66.916 52.1827 67 51.8707 67H51.5467ZM47.5507 59.062C47.2987 59.062 47.0947 58.99 46.9387 58.846C46.7827 58.702 46.7047 58.522 46.7047 58.306C46.7047 58.066 46.7827 57.874 46.9387 57.73C47.0947 57.586 47.2987 57.514 47.5507 57.514H51.7087C51.9607 57.514 52.1647 57.586 52.3207 57.73C52.4767 57.874 52.5547 58.066 52.5547 58.306C52.5547 58.522 52.4767 58.702 52.3207 58.846C52.1647 58.99 51.9607 59.062 51.7087 59.062H47.5507Z" fill="black"/>
<path d="M18.2775 20.3182C19.0998 17.25 22.2537 14.0961 25.322 13.2738L44.4509 8.14743C47.5192 7.32516 49.3399 9.14591 48.5177 12.2142L43.3913 31.3432C42.569 34.4114 39.4151 37.5653 36.3469 38.3876L17.2179 43.514C14.1496 44.3362 12.3289 42.5155 13.1511 39.4472L18.2775 20.3182Z" fill="#B8B8FF"/>
<path d="M10.6088 12.6493C11.4311 9.58107 14.585 6.42717 17.6533 5.60491L36.7822 0.47854C39.8505 -0.343725 41.6713 1.47702 40.849 4.54529L35.7226 23.6743C34.9004 26.7425 31.7465 29.8964 28.6782 30.7187L9.5492 35.8451C6.48093 36.6673 4.66018 34.8466 5.48245 31.7783L10.6088 12.6493Z" fill="#5051F9"/>
</svg>
